<?xml version="1.0" encoding="UTF-8"?>
<svg version="1.1" xmlns="http://www.w3.org/2000/svg" width="64" height="64">
<path d="M0 0 C19.8 0 39.6 0 60 0 C60 15.84 60 31.68 60 48 C40.2 48 20.4 48 0 48 C0 32.16 0 16.32 0 0 Z " fill="#5FBAE9" transform="translate(2,8)"/>
<path d="M0 0 C10.56 0 21.12 0 32 0 C32 7.92 32 15.84 32 24 C21.44 24 10.88 24 0 24 C0 16.08 0 8.16 0 0 Z " fill="#AEDEF9" transform="translate(16,20)"/>
<path d="M0 0 C18.48 0 36.96 0 56 0 C56 2.97 56 5.94 56 9 C37.52 9 19.04 9 0 9 C0 6.03 0 3.06 0 0 Z " fill="#5FBAE9" transform="translate(4,45)"/>
<path d="M0 0 C19.8 0 39.6 0 60 0 C60 15.84 60 31.68 60 48 C40.2 48 20.4 48 0 48 C0 32.16 0 16.32 0 0 Z M2 2 C2 16.52 2 31.04 2 46 C20.48 46 38.96 46 58 46 C58 31.48 58 16.96 58 2 C39.52 2 21.04 2 2 2 Z " fill="#8C6C9E" transform="translate(2,8)"/>
<path d="M0 0 C3.3 0 6.6 0 10 0 C10 7.92 10 15.84 10 24 C0.43 24 -9.14 24 -19 24 C-17.02 21.36 -15.04 18.72 -13 16 C-12.67 16 -12.34 16 -12 16 C-12 17.98 -12 19.96 -12 22 C-11.02417969 21.43410156 -10.04835938 20.86820313 -9.04296875 20.28515625 C-7.75789475 19.54412818 -6.47273396 18.80325061 -5.1875 18.0625 C-4.22360352 17.50272461 -4.22360352 17.50272461 -3.24023438 16.93164062 C-0.51683576 15.36533365 2.01108122 13.99630626 5 13 C5 12.34 5 11.68 5 11 C4.2575 10.731875 3.515 10.46375 2.75 10.1875 C0.13363446 9.05770579 -1.80187111 7.79106798 -4 6 C-2.84826645 3.53199953 -1.95216435 1.95216435 0 0 Z " fill="#D2ECFD" transform="translate(38,20)"/>
<path d="M0 0 C17.16 0 34.32 0 52 0 C52 0.66 52 1.32 52 2 C49.36 2 46.72 2 44 2 C44 9.92 44 17.84 44 26 C46.64 26 49.28 26 52 26 C52 26.66 52 27.32 52 28 C34.84 28 17.68 28 0 28 C0 27.34 0 26.68 0 26 C2.64 26 5.28 26 8 26 C8 18.08 8 10.16 8 2 C5.36 2 2.72 2 0 2 C0 1.34 0 0.68 0 0 Z M10 2 C10 9.92 10 17.84 10 26 C20.56 26 31.12 26 42 26 C42 18.08 42 10.16 42 2 C31.44 2 20.88 2 10 2 Z " fill="#8C6C9F" transform="translate(6,18)"/>
<path d="M0 0 C3.3 0.33 6.6 0.66 10 1 C10 8.92 10 16.84 10 25 C5.05 25.495 5.05 25.495 0 26 C0 17.42 0 8.84 0 0 Z " fill="#AEDFF9" transform="translate(4,19)"/>
<path d="M0 0 C0 8.58 0 17.16 0 26 C-3.3 25.67 -6.6 25.34 -10 25 C-10 17.08 -10 9.16 -10 1 C-2 0 -2 0 0 0 Z " fill="#ABDEF9" transform="translate(60,19)"/>
<path d="M0 0 C4.05326743 1.62130697 7.55135983 3.33240762 11.3125 5.5 C12.38113281 6.1084375 13.44976562 6.716875 14.55078125 7.34375 C15.76314453 8.16359375 15.76314453 8.16359375 17 9 C17 9.66 17 10.32 17 11 C14.56866946 12.63863397 12.15228465 14.14921334 9.625 15.625 C8.57699219 16.25535156 8.57699219 16.25535156 7.5078125 16.8984375 C2.27140828 20 2.27140828 20 0 20 C0 13.4 0 6.8 0 0 Z " fill="#9071A1" transform="translate(26,22)"/>
<path d="M0 0 C3.3 1.65 6.6 3.3 10 5 C10 6.32 10 7.64 10 9 C5.05 11.475 5.05 11.475 0 14 C0 9.38 0 4.76 0 0 Z " fill="#F4DEAD" transform="translate(28,25)"/>
<path d="M0 0 C0.33 0 0.66 0 1 0 C1 4.29 1 8.58 1 13 C-2.63 13 -6.26 13 -10 13 C-2.62702703 3.11351351 -2.62702703 3.11351351 0 0 Z " fill="#B0E0F9" transform="translate(47,31)"/>
<path d="M0 0 C2.64 0.33 5.28 0.66 8 1 C7.04367001 2.29315061 6.08486149 3.58446853 5.125 4.875 C4.59132813 5.59429688 4.05765625 6.31359375 3.5078125 7.0546875 C2 9 2 9 0 11 C0 7.37 0 3.74 0 0 Z " fill="#D4EEFE" transform="translate(4,19)"/>
<path d="M0 0 C4.19360449 0.67097672 7.40334352 2.8558394 11 5 C11 5.66 11 6.32 11 7 C8.03 8.65 5.06 10.3 2 12 C2 11.01 2 10.02 2 9 C3.32 8.34 4.64 7.68 6 7 C6 6.34 6 5.68 6 5 C4.01924973 3.63823419 2.01920337 2.30406884 0 1 C0 0.67 0 0.34 0 0 Z " fill="#967AA5" transform="translate(32,26)"/>
<path d="M0 0 C0.33 0 0.66 0 1 0 C1 2.64 1 5.28 1 8 C-1.97 7.505 -1.97 7.505 -5 7 C-4.19152271 5.83054208 -3.37810888 4.66449539 -2.5625 3.5 C-2.11003906 2.8503125 -1.65757813 2.200625 -1.19140625 1.53125 C-0.79824219 1.0259375 -0.40507813 0.520625 0 0 Z " fill="#D3EEFE" transform="translate(59,37)"/>
<path d="M0 0 C0.99 0.33 1.98 0.66 3 1 C0.03 4.96 0.03 4.96 -3 9 C-3.99 8.34 -4.98 7.68 -6 7 C-4.02 4.69 -2.04 2.38 0 0 Z " fill="#AEDCF6" transform="translate(42,20)"/>
<path d="M0 0 C1.98 0 3.96 0 6 0 C5.19152271 1.16945792 4.37810888 2.33550461 3.5625 3.5 C3.11003906 4.1496875 2.65757813 4.799375 2.19140625 5.46875 C1.79824219 5.9740625 1.40507813 6.479375 1 7 C0.67 7 0.34 7 0 7 C0 4.69 0 2.38 0 0 Z " fill="#D3EEFE" transform="translate(50,20)"/>
<path d="M0 0 C0.99 1.32 1.98 2.64 3 4 C2.01 4.99 1.02 5.98 0 7 C-0.99 5.68 -1.98 4.36 -3 3 C-2.01 2.01 -1.02 1.02 0 0 Z " fill="#EEF8FD" transform="translate(20,22)"/>
</svg>
